# xmcd
#
# Track frame offsets: 
#        150
#        17277
#        34336
#        49782
#        66190
#        91936
#        110716
#        133163
#        152019
#        182452
#        197183
#        212715
#        240874
#
# Disc length: 3437 seconds
#
# Revision: 3
# Processed by: cddbd v1.5.2PL0 Copyright (c) Steve Scherf et al.
# Submitted via: ExactAudioCopy v0.99pb3
#
DISCID=aa0d6b0d
DTITLE=Blue Rodeo - Small Miracles
DYEAR=2007
DGENRE=Rock
TTITLE0=So Far Away
TTITLE1=This Town
TTITLE2=Blue House
TTITLE3=3 Hours Away
TTITLE4=It Makes Me Wonder
TTITLE5=Summer Girls
TTITLE6=Together
TTITLE7=Mystic River
TTITLE8=Black Ribbon
TTITLE9=C'mon
TTITLE10=Small Miracles
TTITLE11=Beautiful
TTITLE12=Where I Was Before
EXTD=YEAR: 2007
EXTT0=
EXTT1=
EXTT2=
EXTT3=
EXTT4=
EXTT5=
EXTT6=
EXTT7=
EXTT8=
EXTT9=
EXTT10=
EXTT11=
EXTT12=
PLAYORDER=
